<mxfile host="app.diagrams.net" modified="2023-01-21T03:56:10.606Z" agent="5.0 (Windows NT 10.0; Win64; x64) AppleWebKit/537.36 (KHTML, like Gecko) Chrome/109.0.0.0 Safari/537.36" etag="VjDOxHVFt1zBYEGsar_Y" version="20.8.10" type="github">
  <diagram name="第 1 页" id="T_IVYPT0piSWZBwPBdoG">
    <mxGraphModel dx="794" dy="476" grid="1" gridSize="10" guides="1" tooltips="1" connect="1" arrows="1" fold="1" page="1" pageScale="1" pageWidth="827" pageHeight="1169" math="0" shadow="0">
      <root>
        <mxCell id="0" />
        <mxCell id="1" parent="0" />
        <mxCell id="StBHZPHMhnb_2ZiY4gXD-25" style="edgeStyle=none;rounded=0;orthogonalLoop=1;jettySize=auto;html=1;exitX=1;exitY=1;exitDx=0;exitDy=0;entryX=0.5;entryY=0;entryDx=0;entryDy=0;fontSize=18;fontColor=#2212FF;" edge="1" parent="1" source="StBHZPHMhnb_2ZiY4gXD-1" target="StBHZPHMhnb_2ZiY4gXD-19">
          <mxGeometry relative="1" as="geometry" />
        </mxCell>
        <mxCell id="StBHZPHMhnb_2ZiY4gXD-1" value="root,&lt;br&gt;end=0,&lt;br style=&quot;border-color: var(--border-color);&quot;&gt;pass=3" style="ellipse;whiteSpace=wrap;html=1;aspect=fixed;" vertex="1" parent="1">
          <mxGeometry x="270" y="130" width="70" height="70" as="geometry" />
        </mxCell>
        <mxCell id="StBHZPHMhnb_2ZiY4gXD-12" style="rounded=0;orthogonalLoop=1;jettySize=auto;html=1;exitX=0.179;exitY=0.979;exitDx=0;exitDy=0;entryX=0.5;entryY=0;entryDx=0;entryDy=0;exitPerimeter=0;" edge="1" parent="1" source="StBHZPHMhnb_2ZiY4gXD-2" target="StBHZPHMhnb_2ZiY4gXD-8">
          <mxGeometry relative="1" as="geometry" />
        </mxCell>
        <mxCell id="StBHZPHMhnb_2ZiY4gXD-2" value="end=0,&lt;br&gt;pass=2" style="ellipse;whiteSpace=wrap;html=1;" vertex="1" parent="1">
          <mxGeometry x="170" y="240" width="70" height="70" as="geometry" />
        </mxCell>
        <mxCell id="StBHZPHMhnb_2ZiY4gXD-6" value="" style="endArrow=classic;html=1;rounded=0;exitX=0;exitY=1;exitDx=0;exitDy=0;" edge="1" parent="1" source="StBHZPHMhnb_2ZiY4gXD-1">
          <mxGeometry width="50" height="50" relative="1" as="geometry">
            <mxPoint x="440" y="130" as="sourcePoint" />
            <mxPoint x="230" y="250" as="targetPoint" />
            <Array as="points" />
          </mxGeometry>
        </mxCell>
        <mxCell id="StBHZPHMhnb_2ZiY4gXD-7" value="end=1,&lt;br style=&quot;border-color: var(--border-color);&quot;&gt;pass=1" style="ellipse;whiteSpace=wrap;html=1;aspect=fixed;" vertex="1" parent="1">
          <mxGeometry x="70" y="470" width="70" height="70" as="geometry" />
        </mxCell>
        <mxCell id="StBHZPHMhnb_2ZiY4gXD-15" style="edgeStyle=none;rounded=0;orthogonalLoop=1;jettySize=auto;html=1;exitX=0;exitY=1;exitDx=0;exitDy=0;entryX=0.5;entryY=0;entryDx=0;entryDy=0;" edge="1" parent="1" source="StBHZPHMhnb_2ZiY4gXD-8" target="StBHZPHMhnb_2ZiY4gXD-7">
          <mxGeometry relative="1" as="geometry" />
        </mxCell>
        <mxCell id="StBHZPHMhnb_2ZiY4gXD-21" style="edgeStyle=none;rounded=0;orthogonalLoop=1;jettySize=auto;html=1;exitX=1;exitY=1;exitDx=0;exitDy=0;entryX=0.5;entryY=0;entryDx=0;entryDy=0;fontSize=18;fontColor=#2212FF;" edge="1" parent="1" source="StBHZPHMhnb_2ZiY4gXD-8" target="StBHZPHMhnb_2ZiY4gXD-18">
          <mxGeometry relative="1" as="geometry" />
        </mxCell>
        <mxCell id="StBHZPHMhnb_2ZiY4gXD-8" value="end=0,&lt;br style=&quot;border-color: var(--border-color);&quot;&gt;pass=2" style="ellipse;whiteSpace=wrap;html=1;aspect=fixed;" vertex="1" parent="1">
          <mxGeometry x="130" y="360" width="70" height="70" as="geometry" />
        </mxCell>
        <mxCell id="StBHZPHMhnb_2ZiY4gXD-28" style="edgeStyle=none;rounded=0;orthogonalLoop=1;jettySize=auto;html=1;exitX=0.5;exitY=1;exitDx=0;exitDy=0;entryX=0.5;entryY=0;entryDx=0;entryDy=0;fontSize=18;fontColor=#2212FF;" edge="1" parent="1" source="StBHZPHMhnb_2ZiY4gXD-9" target="StBHZPHMhnb_2ZiY4gXD-20">
          <mxGeometry relative="1" as="geometry" />
        </mxCell>
        <mxCell id="StBHZPHMhnb_2ZiY4gXD-9" value="end=0,&lt;br style=&quot;border-color: var(--border-color);&quot;&gt;pass=1" style="ellipse;whiteSpace=wrap;html=1;aspect=fixed;" vertex="1" parent="1">
          <mxGeometry x="355" y="350" width="70" height="70" as="geometry" />
        </mxCell>
        <mxCell id="StBHZPHMhnb_2ZiY4gXD-10" value="&lt;font color=&quot;#0000ff&quot; style=&quot;font-size: 18px;&quot;&gt;a&lt;/font&gt;" style="text;html=1;align=center;verticalAlign=middle;resizable=0;points=[];autosize=1;strokeColor=none;fillColor=none;" vertex="1" parent="1">
          <mxGeometry x="225" y="190" width="30" height="40" as="geometry" />
        </mxCell>
        <mxCell id="StBHZPHMhnb_2ZiY4gXD-13" value="&lt;font color=&quot;#2212ff&quot; style=&quot;font-size: 18px;&quot;&gt;b&lt;/font&gt;" style="text;html=1;align=center;verticalAlign=middle;resizable=0;points=[];autosize=1;strokeColor=none;fillColor=none;" vertex="1" parent="1">
          <mxGeometry x="155" y="310" width="30" height="40" as="geometry" />
        </mxCell>
        <mxCell id="StBHZPHMhnb_2ZiY4gXD-16" value="&lt;font color=&quot;#2212ff&quot; style=&quot;font-size: 18px;&quot;&gt;c&lt;/font&gt;" style="text;html=1;align=center;verticalAlign=middle;resizable=0;points=[];autosize=1;strokeColor=none;fillColor=none;" vertex="1" parent="1">
          <mxGeometry x="120" y="430" width="30" height="40" as="geometry" />
        </mxCell>
        <mxCell id="StBHZPHMhnb_2ZiY4gXD-18" value="end=1,&lt;br style=&quot;border-color: var(--border-color);&quot;&gt;pass=1" style="ellipse;whiteSpace=wrap;html=1;aspect=fixed;" vertex="1" parent="1">
          <mxGeometry x="205" y="470" width="70" height="70" as="geometry" />
        </mxCell>
        <mxCell id="StBHZPHMhnb_2ZiY4gXD-27" style="edgeStyle=none;rounded=0;orthogonalLoop=1;jettySize=auto;html=1;exitX=0.5;exitY=1;exitDx=0;exitDy=0;entryX=0.5;entryY=0;entryDx=0;entryDy=0;fontSize=18;fontColor=#2212FF;" edge="1" parent="1" source="StBHZPHMhnb_2ZiY4gXD-19" target="StBHZPHMhnb_2ZiY4gXD-9">
          <mxGeometry relative="1" as="geometry" />
        </mxCell>
        <mxCell id="StBHZPHMhnb_2ZiY4gXD-19" value="end=0,&lt;br style=&quot;border-color: var(--border-color);&quot;&gt;pass=1" style="ellipse;whiteSpace=wrap;html=1;aspect=fixed;" vertex="1" parent="1">
          <mxGeometry x="344" y="240" width="70" height="70" as="geometry" />
        </mxCell>
        <mxCell id="StBHZPHMhnb_2ZiY4gXD-20" value="end=1,&lt;br style=&quot;border-color: var(--border-color);&quot;&gt;pass=1" style="ellipse;whiteSpace=wrap;html=1;aspect=fixed;" vertex="1" parent="1">
          <mxGeometry x="360" y="470" width="70" height="70" as="geometry" />
        </mxCell>
        <mxCell id="StBHZPHMhnb_2ZiY4gXD-24" value="d" style="text;html=1;align=center;verticalAlign=middle;resizable=0;points=[];autosize=1;strokeColor=none;fillColor=none;fontSize=18;fontColor=#2212FF;" vertex="1" parent="1">
          <mxGeometry x="215" y="410" width="30" height="40" as="geometry" />
        </mxCell>
        <mxCell id="StBHZPHMhnb_2ZiY4gXD-26" value="b" style="text;html=1;align=center;verticalAlign=middle;resizable=0;points=[];autosize=1;strokeColor=none;fillColor=none;fontSize=18;fontColor=#2212FF;" vertex="1" parent="1">
          <mxGeometry x="344" y="180" width="30" height="40" as="geometry" />
        </mxCell>
        <mxCell id="StBHZPHMhnb_2ZiY4gXD-29" value="c" style="text;html=1;align=center;verticalAlign=middle;resizable=0;points=[];autosize=1;strokeColor=none;fillColor=none;fontSize=18;fontColor=#2212FF;" vertex="1" parent="1">
          <mxGeometry x="395" y="300" width="30" height="40" as="geometry" />
        </mxCell>
        <mxCell id="StBHZPHMhnb_2ZiY4gXD-30" value="e" style="text;html=1;align=center;verticalAlign=middle;resizable=0;points=[];autosize=1;strokeColor=none;fillColor=none;fontSize=18;fontColor=#2212FF;" vertex="1" parent="1">
          <mxGeometry x="400" y="420" width="30" height="40" as="geometry" />
        </mxCell>
      </root>
    </mxGraphModel>
  </diagram>
</mxfile>
